#!OML:ASF H:\LiuWeirdWalks\Patient Classification 1\Patient 1\Session 1\male.ASF
:FULLY-SPECIFIED
:DEGREES
1436
root 1.27443 17.7932 43.4285 7.30719 2.69698 -2.43716
lowerback -5.19567 1.88037 7.04969
upperback -1.36212 2.09472 2.00404
thorax 1.68149 1.0648 -1.73792
lowerneck -18.8152 -3.06333 2.168
upperneck 24.4844 -4.07846 -3.3731
head 10.8906 -2.0753 -2.1825
rclavicle -6.41081e-015 -6.36111e-015
rhumerus -37.4697 -21.5002 -70.8577
rradius 24.459
rwrist -2.22277
rhand -16.4046 -2.23611
rfingers 7.12502
rthumb 9.80985 -31.9876
lclavicle -6.41081e-015 -6.36111e-015
lhumerus -34.5643 -6.20661 89.0664
lradius 31.0795
lwrist 8.97409
lhand -13.9778 -2.95347
lfingers 7.12502
lthumb 12.1505 26.6737
rfemur -13.626 -1.1922 23.7777
rtibia 30.5141
rfoot -13.9886 -18.548
rtoes -5.60429
lfemur -14.1475 -4.44125 -12.2573
ltibia 26.4588
lfoot -10.532 14.2087
ltoes -8.79633
1437
root 1.2913 17.7961 43.4354 7.37058 2.50854 -2.5265
lowerback -5.32332 1.8601 6.94694
upperback -1.41946 2.06402 2.03704
thorax 1.68622 1.04813 -1.64629
lowerneck -18.7881 -2.94407 2.28574
upperneck 24.5377 -3.90874 -3.50901
head 10.9047 -2.00395 -2.22786
rclavicle -2.22887e-014 3.65764e-014
rhumerus -37.3236 -21.1497 -71.1112
rradius 24.3291
rwrist -2.04761
rhand -16.4182 -2.12656
rfingers 7.12502
rthumb 9.79671 -31.8787
lclavicle -2.22887e-014 3.65764e-014
lhumerus -34.655 -5.75071 88.9211
lradius 31.037
lwrist 9.07391
lhand -14.0902 -2.92015
lfingers 7.12502
lthumb 12.0421 26.7134
rfemur -13.6062 -1.10134 23.8006
rtibia 30.3618
rfoot -13.907 -18.4527
rtoes -5.63339
lfemur -14.1469 -4.38038 -12.2291
ltibia 26.4665
lfoot -10.5709 14.3228
ltoes -8.75263
1438
root 1.30744 17.7987 43.4423 7.42647 2.32147 -2.61011
lowerback -5.3621 2.07973 7.15331
upperback -1.49119 2.34776 1.88409
thorax 1.6704 1.18797 -1.89731
lowerneck -18.8884 -3.08174 2.14333
upperneck 24.6739 -4.1006 -3.36266
head 10.9754 -2.08424 -2.18513
rclavicle 3.8763e-015 -1.51076e-014
rhumerus -37.4678 -21.4755 -71.1046
rradius 24.2977
rwrist -1.85906
rhand -16.4008 -2.07198
rfingers 7.12502
rthumb 9.81344 -31.8233
lclavicle 3.8763e-015 -1.51076e-014
lhumerus -34.6665 -6.01932 88.9266
lradius 30.9577
lwrist 9.18155
lhand -14.1197 -2.88968
lfingers 7.12502
lthumb 12.0137 26.7455
rfemur -13.5797 -1.00768 23.8204
rtibia 30.2143
rfoot -13.8258 -18.3655
rtoes -5.66265
lfemur -14.1345 -4.31219 -12.2044
ltibia 26.4689
lfoot -10.6144 14.4233
ltoes -8.70607
1439
root 1.32271 17.8011 43.4488 7.4852 2.14807 -2.6923
lowerback -5.34531 2.45829 7.56756
upperback -1.557 2.83843 1.60709
thorax 1.66786 1.43166 -2.37681
lowerneck -19.1362 -3.39273 1.83086
upperneck 24.8605 -4.53658 -3.03652
head 11.0964 -2.26702 -2.08995
rclavicle 2.12203e-014 -6.36111e-015
rhumerus -37.7619 -22.2914 -70.9187
rradius 24.3176
rwrist -1.63796
rhand -16.3578 -2.06209
rfingers 7.12502
rthumb 9.85497 -31.8115
lclavicle 2.12203e-014 -6.36111e-015
lhumerus -34.5874 -6.81679 89.0533
lradius 30.8528
lwrist 9.37555
lhand -14.1356 -2.82179
lfingers 7.12502
lthumb 11.9984 26.8143
rfemur -13.5602 -0.914678 23.843
rtibia 30.0727
rfoot -13.7462 -18.2911
rtoes -5.68772
lfemur -14.1274 -4.23494 -12.1765
ltibia 26.4666
lfoot -10.6562 14.5023
ltoes -8.69225
1440
root 1.33744 17.8035 43.4551 7.54957 1.98878 -2.77103
lowerback -5.37335 2.6979 7.80347
upperback -1.58029 3.14562 1.42838
thorax 1.7113 1.58597 -2.66664
lowerneck -19.4464 -3.56412 1.66816
upperneck 25.0231 -4.78446 -2.85118
head 11.2206 -2.36802 -2.04521
rclavicle -1.33931e-014 1.90833e-014
rhumerus -37.8213 -22.8278 -70.8769
rradius 24.3016
rwrist -1.40404
rhand -16.3026 -2.0854
rfingers 7.12502
rthumb 9.90826 -31.8322
lclavicle -1.33931e-014 1.90833e-014
lhumerus -34.479 -7.22074 89.0787
lradius 30.7471
lwrist 9.52798
lhand -14.1339 -2.77841
lfingers 7.12502
lthumb 12 26.8576
rfemur -13.5506 -0.827617 23.8641
rtibia 29.9377
rfoot -13.6753 -18.2216
rtoes -5.69604
lfemur -14.1302 -4.15701 -12.1487
ltibia 26.4609
lfoot -10.6941 14.5694
ltoes -8.67371
1441
root 1.35156 17.8059 43.461 7.61884 1.84807 -2.84303
lowerback -5.42466 2.83508 7.8906
upperback -1.56445 3.31868 1.3381
thorax 1.78455 1.67516 -2.79084
lowerneck -19.8619 -3.63998 1.58183
upperneck 25.1818 -4.89317 -2.77173
head 11.3636 -2.41197 -2.03444
rclavicle 7.0817e-015 3.18055e-015
rhumerus -37.6902 -23.1688 -70.9171
rradius 24.2739
rwrist -1.18677
rhand -16.2426 -2.1296
rfingers 7.12502
rthumb 9.96614 -31.8737
lclavicle 7.0817e-015 3.18055e-015
lhumerus -34.3247 -7.33668 89.0645
lradius 30.6305
lwrist 9.65322
lhand -14.1271 -2.7369
lfingers 7.12502
lthumb 12.0066 26.8987
rfemur -13.5506 -0.756497 23.881
rtibia 29.8089
rfoot -13.6126 -18.153
rtoes -5.69192
lfemur -14.1442 -4.08207 -12.1254
ltibia 26.4536
lfoot -10.7242 14.6275
ltoes -8.66454
1442
root 1.36537 17.8083 43.4666 7.69124 1.72449 -2.90803
lowerback -5.5591 2.7308 7.67807
upperback -1.58118 3.17812 1.41628
thorax 1.81175 1.605 -2.59841
lowerneck -19.9679 -3.46844 1.75679
upperneck 25.2152 -4.66114 -2.94122
head 11.3934 -2.31236 -2.09457
rclavicle 2.33572e-015 3.02153e-014
rhumerus -37.3925 -22.8731 -71.1762
rradius 24.1909
rwrist -1.05349
rhand -16.2144 -2.17393
rfingers 7.12502
rthumb 9.99334 -31.9167
lclavicle 2.33572e-015 3.02153e-014
lhumerus -34.3667 -6.75941 88.8891
lradius 30.5474
lwrist 9.69506
lhand -14.1032 -2.7105
lfingers 7.12502
lthumb 12.0296 26.9238
rfemur -13.556 -0.69662 23.8914
rtibia 29.6846
rfoot -13.5598 -18.0855
rtoes -5.67169
lfemur -14.1678 -4.01756 -12.1081
ltibia 26.4465
lfoot -10.7505 14.6838
ltoes -8.648
1443
root 1.37883 17.8109 43.4717 7.76751 1.62293 -2.96888
lowerback -5.67218 2.66219 7.52281
upperback -1.61841 3.08603 1.46044
thorax 1.81654 1.55796 -2.47055
lowerneck -20.0416 -3.35278 1.85808
upperneck 25.2589 -4.5048 -3.03689
head 11.4236 -2.24421 -2.12626
rclavicle 7.72775e-015 1.51076e-014
rhumerus -37.1743 -22.7008 -71.3752
rradius 24.1245
rwrist -1.00155
rhand -16.2157 -2.18538
rfingers 7.12502
rthumb 9.99211 -31.9282
lclavicle 7.72775e-015 1.51076e-014
lhumerus -34.4305 -6.34723 88.7576
lradius 30.448
lwrist 9.7424
lhand -14.0817 -2.72123
lfingers 7.12502
lthumb 12.0503 26.9118
rfemur -13.5677 -0.653672 23.8993
rtibia 29.5633
rfoot -13.5119 -18.0193
rtoes -5.64255
lfemur -14.2044 -3.96666 -12.0931
ltibia 26.4407
lfoot -10.7693 14.7388
ltoes -8.62875
1444
root 1.39243 17.8134 43.4767 7.84171 1.53103 -3.02271
lowerback -5.75295 2.68994 7.4982
upperback -1.67837 3.12046 1.42732
thorax 1.80327 1.57323 -2.48626
lowerneck -20.0785 -3.34922 1.83555
upperneck 25.3113 -4.50017 -3.01247
head 11.4523 -2.24042 -2.11546
rclavicle 3.13086e-015 1.59028e-015
rhumerus -37.1057 -22.7749 -71.4631
rradius 24.0998
rwrist -1.03805
rhand -16.2529 -2.18261
rfingers 7.12502
rthumb 9.95618 -31.9272
lclavicle 3.13086e-015 1.59028e-015
lhumerus -34.4969 -6.26726 88.7037
lradius 30.3128
lwrist 9.73085
lhand -14.0137 -2.7574
lfingers 7.12502
lthumb 12.1159 26.8718
rfemur -13.5791 -0.620039 23.8994
rtibia 29.4486
rfoot -13.4663 -17.9532
rtoes -5.62174
lfemur -14.2407 -3.93456 -12.0867
ltibia 26.4317
lfoot -10.7829 14.8053
ltoes -8.57966
1445
root 1.40591 17.8158 43.4815 7.91163 1.45362 -3.07342
lowerback -5.81898 2.63595 7.37883
upperback -1.7592 3.05338 1.45125
thorax 1.74224 1.53586 -2.40054
lowerneck -20.0401 -3.26601 1.89291
upperneck 25.3379 -4.38379 -3.07165
head 11.4553 -2.19012 -2.12893
rclavicle 1.4971e-014 -5.56597e-015
rhumerus -36.9846 -22.6442 -71.6105
rradius 24.0417
rwrist -1.11119
rhand -16.3033 -2.15595
rfingers 7.12502
rthumb 9.90755 -31.9028
lclavicle 1.4971e-014 -5.56597e-015
lhumerus -34.6291 -5.96673 88.6
lradius 30.164
lwrist 9.60858
lhand -13.9178 -2.84762
lfingers 7.12502
lthumb 12.2084 26.7761
rfemur -13.588 -0.593691 23.8973
rtibia 29.3398
rfoot -13.4232 -17.8918
rtoes -5.6001
lfemur -14.2761 -3.9108 -12.0835
ltibia 26.4214
lfoot -10.7913 14.8703
ltoes -8.52524
